<mxfile host="app.diagrams.net" agent="Mozilla/5.0 (Macintosh; Intel Mac OS X 10_15_7) AppleWebKit/537.36 (KHTML, like Gecko) Chrome/129.0.0.0 Safari/537.36" version="24.7.17" pages="6">
  <diagram name="Страница — 1" id="wbyr2jQrGzKK8I_V7S5s">
    <mxGraphModel dx="1434" dy="795" grid="1" gridSize="10" guides="1" tooltips="1" connect="1" arrows="1" fold="1" page="1" pageScale="1" pageWidth="827" pageHeight="1169" math="0" shadow="0">
      <root>
        <mxCell id="0" />
        <mxCell id="1" parent="0" />
        <mxCell id="-gCUKngfZWdlTpoUGYxR-1" value="Научные&lt;br&gt;исследования" style="ellipse;whiteSpace=wrap;html=1;" vertex="1" parent="1">
          <mxGeometry x="370" y="350" width="140" height="40" as="geometry" />
        </mxCell>
        <mxCell id="-gCUKngfZWdlTpoUGYxR-2" value="Фундаментальные" style="ellipse;whiteSpace=wrap;html=1;" vertex="1" parent="1">
          <mxGeometry x="600" y="270" width="140" height="40" as="geometry" />
        </mxCell>
        <mxCell id="-gCUKngfZWdlTpoUGYxR-3" value="Экспресс-&lt;br&gt;исследования" style="ellipse;whiteSpace=wrap;html=1;" vertex="1" parent="1">
          <mxGeometry x="140" y="410" width="140" height="40" as="geometry" />
        </mxCell>
        <mxCell id="-gCUKngfZWdlTpoUGYxR-4" value="Краткосрочные" style="ellipse;whiteSpace=wrap;html=1;" vertex="1" parent="1">
          <mxGeometry x="140" y="350" width="140" height="40" as="geometry" />
        </mxCell>
        <mxCell id="-gCUKngfZWdlTpoUGYxR-5" value="Долгосрочные" style="ellipse;whiteSpace=wrap;html=1;" vertex="1" parent="1">
          <mxGeometry x="140" y="290" width="140" height="40" as="geometry" />
        </mxCell>
        <mxCell id="-gCUKngfZWdlTpoUGYxR-6" value="Прикладные" style="ellipse;whiteSpace=wrap;html=1;" vertex="1" parent="1">
          <mxGeometry x="600" y="320" width="140" height="40" as="geometry" />
        </mxCell>
        <mxCell id="-gCUKngfZWdlTpoUGYxR-7" value="Поисковые" style="ellipse;whiteSpace=wrap;html=1;" vertex="1" parent="1">
          <mxGeometry x="600" y="370" width="140" height="40" as="geometry" />
        </mxCell>
        <mxCell id="-gCUKngfZWdlTpoUGYxR-8" value="Экспериментальные&lt;br&gt;разработки" style="ellipse;whiteSpace=wrap;html=1;" vertex="1" parent="1">
          <mxGeometry x="600" y="420" width="140" height="60" as="geometry" />
        </mxCell>
        <mxCell id="-gCUKngfZWdlTpoUGYxR-9" value="" style="endArrow=none;html=1;rounded=0;entryX=0;entryY=0.5;entryDx=0;entryDy=0;exitX=1;exitY=0.5;exitDx=0;exitDy=0;" edge="1" parent="1" source="-gCUKngfZWdlTpoUGYxR-1" target="-gCUKngfZWdlTpoUGYxR-2">
          <mxGeometry width="50" height="50" relative="1" as="geometry">
            <mxPoint x="490" y="450" as="sourcePoint" />
            <mxPoint x="540" y="400" as="targetPoint" />
            <Array as="points">
              <mxPoint x="560" y="370" />
              <mxPoint x="560" y="290" />
            </Array>
          </mxGeometry>
        </mxCell>
        <mxCell id="-gCUKngfZWdlTpoUGYxR-10" value="" style="endArrow=none;html=1;rounded=0;entryX=0;entryY=0.5;entryDx=0;entryDy=0;exitX=1;exitY=0.5;exitDx=0;exitDy=0;" edge="1" parent="1" source="-gCUKngfZWdlTpoUGYxR-1" target="-gCUKngfZWdlTpoUGYxR-6">
          <mxGeometry width="50" height="50" relative="1" as="geometry">
            <mxPoint x="520" y="380" as="sourcePoint" />
            <mxPoint x="610" y="300" as="targetPoint" />
            <Array as="points">
              <mxPoint x="560" y="370" />
              <mxPoint x="560" y="340" />
            </Array>
          </mxGeometry>
        </mxCell>
        <mxCell id="-gCUKngfZWdlTpoUGYxR-11" value="" style="endArrow=none;html=1;rounded=0;entryX=0;entryY=0.5;entryDx=0;entryDy=0;exitX=1;exitY=0.5;exitDx=0;exitDy=0;" edge="1" parent="1" source="-gCUKngfZWdlTpoUGYxR-1" target="-gCUKngfZWdlTpoUGYxR-8">
          <mxGeometry width="50" height="50" relative="1" as="geometry">
            <mxPoint x="520" y="380" as="sourcePoint" />
            <mxPoint x="610" y="350" as="targetPoint" />
            <Array as="points">
              <mxPoint x="560" y="370" />
              <mxPoint x="560" y="450" />
            </Array>
          </mxGeometry>
        </mxCell>
        <mxCell id="-gCUKngfZWdlTpoUGYxR-12" value="" style="endArrow=none;html=1;rounded=0;entryX=0;entryY=0.5;entryDx=0;entryDy=0;exitX=1;exitY=0.5;exitDx=0;exitDy=0;" edge="1" parent="1" source="-gCUKngfZWdlTpoUGYxR-1" target="-gCUKngfZWdlTpoUGYxR-7">
          <mxGeometry width="50" height="50" relative="1" as="geometry">
            <mxPoint x="520" y="380" as="sourcePoint" />
            <mxPoint x="610" y="460" as="targetPoint" />
            <Array as="points">
              <mxPoint x="560" y="370" />
              <mxPoint x="560" y="390" />
            </Array>
          </mxGeometry>
        </mxCell>
        <mxCell id="-gCUKngfZWdlTpoUGYxR-13" value="" style="endArrow=none;html=1;rounded=0;entryX=0;entryY=0.5;entryDx=0;entryDy=0;exitX=1;exitY=0.5;exitDx=0;exitDy=0;" edge="1" parent="1" source="-gCUKngfZWdlTpoUGYxR-5" target="-gCUKngfZWdlTpoUGYxR-1">
          <mxGeometry width="50" height="50" relative="1" as="geometry">
            <mxPoint x="530" y="390" as="sourcePoint" />
            <mxPoint x="620" y="470" as="targetPoint" />
            <Array as="points">
              <mxPoint x="320" y="310" />
              <mxPoint x="320" y="370" />
            </Array>
          </mxGeometry>
        </mxCell>
        <mxCell id="-gCUKngfZWdlTpoUGYxR-14" value="" style="endArrow=none;html=1;rounded=0;entryX=0;entryY=0.5;entryDx=0;entryDy=0;exitX=1;exitY=0.5;exitDx=0;exitDy=0;" edge="1" parent="1" source="-gCUKngfZWdlTpoUGYxR-3" target="-gCUKngfZWdlTpoUGYxR-1">
          <mxGeometry width="50" height="50" relative="1" as="geometry">
            <mxPoint x="290" y="320" as="sourcePoint" />
            <mxPoint x="380" y="380" as="targetPoint" />
            <Array as="points">
              <mxPoint x="320" y="430" />
              <mxPoint x="320" y="370" />
            </Array>
          </mxGeometry>
        </mxCell>
        <mxCell id="-gCUKngfZWdlTpoUGYxR-15" value="" style="endArrow=none;html=1;rounded=0;entryX=0;entryY=0.5;entryDx=0;entryDy=0;exitX=1;exitY=0.5;exitDx=0;exitDy=0;" edge="1" parent="1" source="-gCUKngfZWdlTpoUGYxR-4" target="-gCUKngfZWdlTpoUGYxR-1">
          <mxGeometry width="50" height="50" relative="1" as="geometry">
            <mxPoint x="290" y="440" as="sourcePoint" />
            <mxPoint x="380" y="380" as="targetPoint" />
            <Array as="points">
              <mxPoint x="320" y="370" />
            </Array>
          </mxGeometry>
        </mxCell>
      </root>
    </mxGraphModel>
  </diagram>
  <diagram id="rxdIrxc-b3YtAUaDcgUk" name="Страница — 2">
    <mxGraphModel dx="1195" dy="663" grid="1" gridSize="10" guides="1" tooltips="1" connect="1" arrows="1" fold="1" page="1" pageScale="1" pageWidth="827" pageHeight="1169" math="0" shadow="0">
      <root>
        <mxCell id="0" />
        <mxCell id="1" parent="0" />
        <mxCell id="UUJi9A6KzK3hamL-ZE_2-1" value="Постановка задачи" style="text;html=1;align=center;verticalAlign=middle;resizable=0;points=[];autosize=1;strokeColor=none;fillColor=none;" vertex="1" parent="1">
          <mxGeometry x="120" y="440" width="130" height="30" as="geometry" />
        </mxCell>
        <mxCell id="UUJi9A6KzK3hamL-ZE_2-2" value="Выдвижение гипотез" style="text;html=1;align=center;verticalAlign=middle;resizable=0;points=[];autosize=1;strokeColor=none;fillColor=none;" vertex="1" parent="1">
          <mxGeometry x="200" y="410" width="140" height="30" as="geometry" />
        </mxCell>
        <mxCell id="UUJi9A6KzK3hamL-ZE_2-3" value="Теоретическая оценка гипотез" style="text;html=1;align=center;verticalAlign=middle;resizable=0;points=[];autosize=1;strokeColor=none;fillColor=none;" vertex="1" parent="1">
          <mxGeometry x="280" y="380" width="200" height="30" as="geometry" />
        </mxCell>
        <mxCell id="UUJi9A6KzK3hamL-ZE_2-4" value="Создание программ экспериментов" style="text;html=1;align=center;verticalAlign=middle;resizable=0;points=[];autosize=1;strokeColor=none;fillColor=none;" vertex="1" parent="1">
          <mxGeometry x="360" y="350" width="230" height="30" as="geometry" />
        </mxCell>
        <mxCell id="UUJi9A6KzK3hamL-ZE_2-5" value="Проведение экспериментальных исследований" style="text;html=1;align=center;verticalAlign=middle;resizable=0;points=[];autosize=1;strokeColor=none;fillColor=none;" vertex="1" parent="1">
          <mxGeometry x="440" y="320" width="290" height="30" as="geometry" />
        </mxCell>
        <mxCell id="UUJi9A6KzK3hamL-ZE_2-6" value="Сбор и обработка результатов" style="text;html=1;align=center;verticalAlign=middle;resizable=0;points=[];autosize=1;strokeColor=none;fillColor=none;" vertex="1" parent="1">
          <mxGeometry x="520" y="290" width="200" height="30" as="geometry" />
        </mxCell>
        <mxCell id="UUJi9A6KzK3hamL-ZE_2-7" value="Сравнение гипотез и результатов наблюдений" style="text;html=1;align=center;verticalAlign=middle;resizable=0;points=[];autosize=1;strokeColor=none;fillColor=none;" vertex="1" parent="1">
          <mxGeometry x="600" y="260" width="290" height="30" as="geometry" />
        </mxCell>
        <mxCell id="UUJi9A6KzK3hamL-ZE_2-8" value="Оценка гипотез" style="text;html=1;align=center;verticalAlign=middle;resizable=0;points=[];autosize=1;strokeColor=none;fillColor=none;" vertex="1" parent="1">
          <mxGeometry x="680" y="230" width="110" height="30" as="geometry" />
        </mxCell>
        <mxCell id="UUJi9A6KzK3hamL-ZE_2-9" value="Постановка новых задач" style="text;html=1;align=center;verticalAlign=middle;resizable=0;points=[];autosize=1;strokeColor=none;fillColor=none;" vertex="1" parent="1">
          <mxGeometry x="760" y="200" width="170" height="30" as="geometry" />
        </mxCell>
        <mxCell id="UUJi9A6KzK3hamL-ZE_2-10" value="" style="endArrow=none;html=1;rounded=0;" edge="1" parent="1">
          <mxGeometry width="50" height="50" relative="1" as="geometry">
            <mxPoint x="930" y="470" as="sourcePoint" />
            <mxPoint x="930" y="470" as="targetPoint" />
            <Array as="points">
              <mxPoint x="120" y="470" />
              <mxPoint x="120" y="440" />
              <mxPoint x="200" y="440" />
              <mxPoint x="200" y="410" />
              <mxPoint x="280" y="410" />
              <mxPoint x="280" y="380" />
              <mxPoint x="360" y="380" />
              <mxPoint x="360" y="350" />
              <mxPoint x="440" y="350" />
              <mxPoint x="440" y="320" />
              <mxPoint x="520" y="320" />
              <mxPoint x="520" y="290" />
              <mxPoint x="600" y="290" />
              <mxPoint x="600" y="260" />
              <mxPoint x="680" y="260" />
              <mxPoint x="680" y="230" />
              <mxPoint x="760" y="230" />
              <mxPoint x="760" y="200" />
              <mxPoint x="930" y="200" />
            </Array>
          </mxGeometry>
        </mxCell>
        <mxCell id="UUJi9A6KzK3hamL-ZE_2-14" value="" style="endArrow=none;html=1;rounded=0;" edge="1" parent="1">
          <mxGeometry width="50" height="50" relative="1" as="geometry">
            <mxPoint x="200" y="440" as="sourcePoint" />
            <mxPoint x="930" y="440" as="targetPoint" />
          </mxGeometry>
        </mxCell>
        <mxCell id="UUJi9A6KzK3hamL-ZE_2-15" value="" style="endArrow=none;html=1;rounded=0;" edge="1" parent="1">
          <mxGeometry width="50" height="50" relative="1" as="geometry">
            <mxPoint x="280" y="410" as="sourcePoint" />
            <mxPoint x="930" y="410" as="targetPoint" />
          </mxGeometry>
        </mxCell>
        <mxCell id="UUJi9A6KzK3hamL-ZE_2-19" value="" style="endArrow=none;html=1;rounded=0;" edge="1" parent="1">
          <mxGeometry width="50" height="50" relative="1" as="geometry">
            <mxPoint x="360" y="380" as="sourcePoint" />
            <mxPoint x="930" y="380" as="targetPoint" />
          </mxGeometry>
        </mxCell>
        <mxCell id="UUJi9A6KzK3hamL-ZE_2-20" value="" style="endArrow=none;html=1;rounded=0;" edge="1" parent="1">
          <mxGeometry width="50" height="50" relative="1" as="geometry">
            <mxPoint x="440" y="350" as="sourcePoint" />
            <mxPoint x="930" y="350" as="targetPoint" />
          </mxGeometry>
        </mxCell>
        <mxCell id="UUJi9A6KzK3hamL-ZE_2-21" value="" style="endArrow=none;html=1;rounded=0;" edge="1" parent="1">
          <mxGeometry width="50" height="50" relative="1" as="geometry">
            <mxPoint x="520" y="320" as="sourcePoint" />
            <mxPoint x="930" y="320" as="targetPoint" />
          </mxGeometry>
        </mxCell>
        <mxCell id="UUJi9A6KzK3hamL-ZE_2-22" value="" style="endArrow=none;html=1;rounded=0;" edge="1" parent="1">
          <mxGeometry width="50" height="50" relative="1" as="geometry">
            <mxPoint x="600" y="290" as="sourcePoint" />
            <mxPoint x="930" y="290" as="targetPoint" />
          </mxGeometry>
        </mxCell>
        <mxCell id="UUJi9A6KzK3hamL-ZE_2-23" value="" style="endArrow=none;html=1;rounded=0;" edge="1" parent="1">
          <mxGeometry width="50" height="50" relative="1" as="geometry">
            <mxPoint x="680" y="260" as="sourcePoint" />
            <mxPoint x="930" y="260" as="targetPoint" />
          </mxGeometry>
        </mxCell>
        <mxCell id="UUJi9A6KzK3hamL-ZE_2-24" value="" style="endArrow=none;html=1;rounded=0;" edge="1" parent="1">
          <mxGeometry width="50" height="50" relative="1" as="geometry">
            <mxPoint x="760" y="230" as="sourcePoint" />
            <mxPoint x="930" y="230" as="targetPoint" />
          </mxGeometry>
        </mxCell>
        <mxCell id="UUJi9A6KzK3hamL-ZE_2-26" value="&lt;font style=&quot;font-size: 30px;&quot;&gt;1&lt;/font&gt;" style="whiteSpace=wrap;html=1;" vertex="1" parent="1">
          <mxGeometry x="140" y="390" width="40" height="40" as="geometry" />
        </mxCell>
        <mxCell id="UUJi9A6KzK3hamL-ZE_2-27" value="&lt;font style=&quot;font-size: 30px;&quot;&gt;2&lt;/font&gt;" style="whiteSpace=wrap;html=1;" vertex="1" parent="1">
          <mxGeometry x="220" y="360" width="40" height="40" as="geometry" />
        </mxCell>
        <mxCell id="UUJi9A6KzK3hamL-ZE_2-28" value="&lt;font style=&quot;font-size: 30px;&quot;&gt;3&lt;/font&gt;" style="whiteSpace=wrap;html=1;" vertex="1" parent="1">
          <mxGeometry x="300" y="330" width="40" height="40" as="geometry" />
        </mxCell>
        <mxCell id="UUJi9A6KzK3hamL-ZE_2-29" value="&lt;font style=&quot;font-size: 30px;&quot;&gt;4&lt;/font&gt;" style="whiteSpace=wrap;html=1;" vertex="1" parent="1">
          <mxGeometry x="380" y="300" width="40" height="40" as="geometry" />
        </mxCell>
        <mxCell id="UUJi9A6KzK3hamL-ZE_2-30" value="&lt;font style=&quot;font-size: 30px;&quot;&gt;5&lt;/font&gt;" style="whiteSpace=wrap;html=1;" vertex="1" parent="1">
          <mxGeometry x="460" y="270" width="40" height="40" as="geometry" />
        </mxCell>
        <mxCell id="UUJi9A6KzK3hamL-ZE_2-31" value="&lt;font style=&quot;font-size: 30px;&quot;&gt;6&lt;/font&gt;" style="whiteSpace=wrap;html=1;" vertex="1" parent="1">
          <mxGeometry x="540" y="240" width="40" height="40" as="geometry" />
        </mxCell>
        <mxCell id="UUJi9A6KzK3hamL-ZE_2-32" value="&lt;font style=&quot;font-size: 30px;&quot;&gt;7&lt;/font&gt;" style="whiteSpace=wrap;html=1;" vertex="1" parent="1">
          <mxGeometry x="620" y="210" width="40" height="40" as="geometry" />
        </mxCell>
        <mxCell id="UUJi9A6KzK3hamL-ZE_2-33" value="&lt;font style=&quot;font-size: 30px;&quot;&gt;8&lt;/font&gt;" style="whiteSpace=wrap;html=1;" vertex="1" parent="1">
          <mxGeometry x="700" y="180" width="40" height="40" as="geometry" />
        </mxCell>
        <mxCell id="UUJi9A6KzK3hamL-ZE_2-34" value="&lt;font style=&quot;font-size: 30px;&quot;&gt;9&lt;/font&gt;" style="whiteSpace=wrap;html=1;" vertex="1" parent="1">
          <mxGeometry x="770" y="150" width="40" height="40" as="geometry" />
        </mxCell>
      </root>
    </mxGraphModel>
  </diagram>
  <diagram id="NwRS5eObx4x7_ZCTOFX5" name="Страница — 3">
    <mxGraphModel dx="1434" dy="795" grid="1" gridSize="10" guides="1" tooltips="1" connect="1" arrows="1" fold="1" page="1" pageScale="1" pageWidth="827" pageHeight="1169" math="0" shadow="0">
      <root>
        <mxCell id="0" />
        <mxCell id="1" parent="0" />
        <mxCell id="r4Iu0HzSyCqmcW0cpHHx-1" value="Частные&lt;br&gt;факты" style="text;html=1;align=center;verticalAlign=middle;resizable=0;points=[];autosize=1;strokeColor=none;fillColor=none;" vertex="1" parent="1">
          <mxGeometry x="130" y="315" width="70" height="40" as="geometry" />
        </mxCell>
        <mxCell id="r4Iu0HzSyCqmcW0cpHHx-2" value="Частные&lt;br&gt;выводы" style="text;html=1;align=center;verticalAlign=middle;resizable=0;points=[];autosize=1;strokeColor=none;fillColor=none;" vertex="1" parent="1">
          <mxGeometry x="680" y="315" width="70" height="40" as="geometry" />
        </mxCell>
        <mxCell id="r4Iu0HzSyCqmcW0cpHHx-3" value="Общее&lt;br&gt;положение" style="ellipse;whiteSpace=wrap;html=1;" vertex="1" parent="1">
          <mxGeometry x="360" y="295" width="160" height="80" as="geometry" />
        </mxCell>
        <mxCell id="r4Iu0HzSyCqmcW0cpHHx-4" value="" style="ellipse;whiteSpace=wrap;html=1;" vertex="1" parent="1">
          <mxGeometry x="210" y="240" width="30" height="30" as="geometry" />
        </mxCell>
        <mxCell id="r4Iu0HzSyCqmcW0cpHHx-5" value="" style="ellipse;whiteSpace=wrap;html=1;" vertex="1" parent="1">
          <mxGeometry x="210" y="280" width="30" height="30" as="geometry" />
        </mxCell>
        <mxCell id="r4Iu0HzSyCqmcW0cpHHx-6" value="" style="ellipse;whiteSpace=wrap;html=1;" vertex="1" parent="1">
          <mxGeometry x="210" y="320" width="30" height="30" as="geometry" />
        </mxCell>
        <mxCell id="r4Iu0HzSyCqmcW0cpHHx-7" value="" style="ellipse;whiteSpace=wrap;html=1;" vertex="1" parent="1">
          <mxGeometry x="210" y="360" width="30" height="30" as="geometry" />
        </mxCell>
        <mxCell id="r4Iu0HzSyCqmcW0cpHHx-8" value="" style="ellipse;whiteSpace=wrap;html=1;" vertex="1" parent="1">
          <mxGeometry x="210" y="400" width="30" height="30" as="geometry" />
        </mxCell>
        <mxCell id="r4Iu0HzSyCqmcW0cpHHx-14" value="" style="ellipse;whiteSpace=wrap;html=1;" vertex="1" parent="1">
          <mxGeometry x="640" y="240" width="30" height="30" as="geometry" />
        </mxCell>
        <mxCell id="r4Iu0HzSyCqmcW0cpHHx-15" value="" style="ellipse;whiteSpace=wrap;html=1;" vertex="1" parent="1">
          <mxGeometry x="640" y="280" width="30" height="30" as="geometry" />
        </mxCell>
        <mxCell id="r4Iu0HzSyCqmcW0cpHHx-16" value="" style="ellipse;whiteSpace=wrap;html=1;" vertex="1" parent="1">
          <mxGeometry x="640" y="320" width="30" height="30" as="geometry" />
        </mxCell>
        <mxCell id="r4Iu0HzSyCqmcW0cpHHx-17" value="" style="ellipse;whiteSpace=wrap;html=1;" vertex="1" parent="1">
          <mxGeometry x="640" y="360" width="30" height="30" as="geometry" />
        </mxCell>
        <mxCell id="r4Iu0HzSyCqmcW0cpHHx-18" value="" style="ellipse;whiteSpace=wrap;html=1;" vertex="1" parent="1">
          <mxGeometry x="640" y="400" width="30" height="30" as="geometry" />
        </mxCell>
        <mxCell id="r4Iu0HzSyCqmcW0cpHHx-19" value="" style="endArrow=none;html=1;rounded=0;entryX=1;entryY=0.5;entryDx=0;entryDy=0;exitX=0;exitY=0.5;exitDx=0;exitDy=0;" edge="1" parent="1" source="r4Iu0HzSyCqmcW0cpHHx-3" target="r4Iu0HzSyCqmcW0cpHHx-4">
          <mxGeometry width="50" height="50" relative="1" as="geometry">
            <mxPoint x="270" y="370" as="sourcePoint" />
            <mxPoint x="320" y="320" as="targetPoint" />
          </mxGeometry>
        </mxCell>
        <mxCell id="r4Iu0HzSyCqmcW0cpHHx-20" value="" style="endArrow=none;html=1;rounded=0;entryX=1;entryY=0.5;entryDx=0;entryDy=0;exitX=0;exitY=0.5;exitDx=0;exitDy=0;" edge="1" parent="1" source="r4Iu0HzSyCqmcW0cpHHx-3" target="r4Iu0HzSyCqmcW0cpHHx-5">
          <mxGeometry width="50" height="50" relative="1" as="geometry">
            <mxPoint x="370" y="345" as="sourcePoint" />
            <mxPoint x="250" y="265" as="targetPoint" />
          </mxGeometry>
        </mxCell>
        <mxCell id="r4Iu0HzSyCqmcW0cpHHx-21" value="" style="endArrow=none;html=1;rounded=0;entryX=1;entryY=0.5;entryDx=0;entryDy=0;exitX=0;exitY=0.5;exitDx=0;exitDy=0;" edge="1" parent="1" source="r4Iu0HzSyCqmcW0cpHHx-3" target="r4Iu0HzSyCqmcW0cpHHx-6">
          <mxGeometry width="50" height="50" relative="1" as="geometry">
            <mxPoint x="370" y="345" as="sourcePoint" />
            <mxPoint x="250" y="305" as="targetPoint" />
          </mxGeometry>
        </mxCell>
        <mxCell id="r4Iu0HzSyCqmcW0cpHHx-22" value="" style="endArrow=none;html=1;rounded=0;entryX=1;entryY=0.5;entryDx=0;entryDy=0;exitX=0;exitY=0.5;exitDx=0;exitDy=0;" edge="1" parent="1" source="r4Iu0HzSyCqmcW0cpHHx-3" target="r4Iu0HzSyCqmcW0cpHHx-7">
          <mxGeometry width="50" height="50" relative="1" as="geometry">
            <mxPoint x="370" y="345" as="sourcePoint" />
            <mxPoint x="250" y="345" as="targetPoint" />
          </mxGeometry>
        </mxCell>
        <mxCell id="r4Iu0HzSyCqmcW0cpHHx-23" value="" style="endArrow=none;html=1;rounded=0;entryX=1;entryY=0.5;entryDx=0;entryDy=0;exitX=0;exitY=0.5;exitDx=0;exitDy=0;" edge="1" parent="1" source="r4Iu0HzSyCqmcW0cpHHx-3" target="r4Iu0HzSyCqmcW0cpHHx-8">
          <mxGeometry width="50" height="50" relative="1" as="geometry">
            <mxPoint x="370" y="345" as="sourcePoint" />
            <mxPoint x="250" y="385" as="targetPoint" />
          </mxGeometry>
        </mxCell>
        <mxCell id="r4Iu0HzSyCqmcW0cpHHx-24" value="" style="endArrow=none;html=1;rounded=0;entryX=1;entryY=0.5;entryDx=0;entryDy=0;exitX=0;exitY=0.5;exitDx=0;exitDy=0;" edge="1" parent="1" source="r4Iu0HzSyCqmcW0cpHHx-14" target="r4Iu0HzSyCqmcW0cpHHx-3">
          <mxGeometry width="50" height="50" relative="1" as="geometry">
            <mxPoint x="380" y="355" as="sourcePoint" />
            <mxPoint x="260" y="395" as="targetPoint" />
          </mxGeometry>
        </mxCell>
        <mxCell id="r4Iu0HzSyCqmcW0cpHHx-25" value="" style="endArrow=none;html=1;rounded=0;entryX=1;entryY=0.5;entryDx=0;entryDy=0;exitX=0;exitY=0.5;exitDx=0;exitDy=0;" edge="1" parent="1" source="r4Iu0HzSyCqmcW0cpHHx-15" target="r4Iu0HzSyCqmcW0cpHHx-3">
          <mxGeometry width="50" height="50" relative="1" as="geometry">
            <mxPoint x="650" y="265" as="sourcePoint" />
            <mxPoint x="530" y="345" as="targetPoint" />
          </mxGeometry>
        </mxCell>
        <mxCell id="r4Iu0HzSyCqmcW0cpHHx-26" value="" style="endArrow=none;html=1;rounded=0;entryX=1;entryY=0.5;entryDx=0;entryDy=0;exitX=0;exitY=0.5;exitDx=0;exitDy=0;" edge="1" parent="1" source="r4Iu0HzSyCqmcW0cpHHx-16" target="r4Iu0HzSyCqmcW0cpHHx-3">
          <mxGeometry width="50" height="50" relative="1" as="geometry">
            <mxPoint x="650" y="305" as="sourcePoint" />
            <mxPoint x="530" y="345" as="targetPoint" />
          </mxGeometry>
        </mxCell>
        <mxCell id="r4Iu0HzSyCqmcW0cpHHx-27" value="" style="endArrow=none;html=1;rounded=0;entryX=1;entryY=0.5;entryDx=0;entryDy=0;exitX=0;exitY=0.5;exitDx=0;exitDy=0;" edge="1" parent="1" source="r4Iu0HzSyCqmcW0cpHHx-17" target="r4Iu0HzSyCqmcW0cpHHx-3">
          <mxGeometry width="50" height="50" relative="1" as="geometry">
            <mxPoint x="650" y="345" as="sourcePoint" />
            <mxPoint x="530" y="345" as="targetPoint" />
          </mxGeometry>
        </mxCell>
        <mxCell id="r4Iu0HzSyCqmcW0cpHHx-28" value="" style="endArrow=none;html=1;rounded=0;entryX=1;entryY=0.5;entryDx=0;entryDy=0;exitX=0;exitY=0.5;exitDx=0;exitDy=0;" edge="1" parent="1" source="r4Iu0HzSyCqmcW0cpHHx-18" target="r4Iu0HzSyCqmcW0cpHHx-3">
          <mxGeometry width="50" height="50" relative="1" as="geometry">
            <mxPoint x="650" y="385" as="sourcePoint" />
            <mxPoint x="530" y="345" as="targetPoint" />
          </mxGeometry>
        </mxCell>
        <mxCell id="r4Iu0HzSyCqmcW0cpHHx-29" value="" style="shape=curlyBracket;whiteSpace=wrap;html=1;rounded=1;labelPosition=left;verticalLabelPosition=middle;align=right;verticalAlign=middle;direction=south;" vertex="1" parent="1">
          <mxGeometry x="240" y="200" width="120" height="20" as="geometry" />
        </mxCell>
        <mxCell id="r4Iu0HzSyCqmcW0cpHHx-30" value="Индукция" style="text;html=1;align=center;verticalAlign=middle;resizable=0;points=[];autosize=1;strokeColor=none;fillColor=none;" vertex="1" parent="1">
          <mxGeometry x="260" y="170" width="80" height="30" as="geometry" />
        </mxCell>
        <mxCell id="r4Iu0HzSyCqmcW0cpHHx-34" value="" style="shape=curlyBracket;whiteSpace=wrap;html=1;rounded=1;labelPosition=left;verticalLabelPosition=middle;align=right;verticalAlign=middle;direction=south;" vertex="1" parent="1">
          <mxGeometry x="520" y="200" width="120" height="20" as="geometry" />
        </mxCell>
        <mxCell id="r4Iu0HzSyCqmcW0cpHHx-35" value="Дедукция" style="text;html=1;align=center;verticalAlign=middle;resizable=0;points=[];autosize=1;strokeColor=none;fillColor=none;" vertex="1" parent="1">
          <mxGeometry x="540" y="170" width="80" height="30" as="geometry" />
        </mxCell>
      </root>
    </mxGraphModel>
  </diagram>
  <diagram id="zwFxgWb6l7WXoruDu5WZ" name="Страница — 4">
    <mxGraphModel dx="1147" dy="636" grid="1" gridSize="10" guides="1" tooltips="1" connect="1" arrows="1" fold="1" page="1" pageScale="1" pageWidth="827" pageHeight="1169" math="0" shadow="0">
      <root>
        <mxCell id="0" />
        <mxCell id="1" parent="0" />
        <mxCell id="suJwKmTHIOtbUAnFITFg-8" value="Исследовательский проект" style="rounded=0;whiteSpace=wrap;html=1;" vertex="1" parent="1">
          <mxGeometry x="50" y="160" width="130" height="40" as="geometry" />
        </mxCell>
        <mxCell id="suJwKmTHIOtbUAnFITFg-9" value="Этапы решения задачи" style="rounded=0;whiteSpace=wrap;html=1;" vertex="1" parent="1">
          <mxGeometry x="280" y="40" width="200" height="40" as="geometry" />
        </mxCell>
        <mxCell id="suJwKmTHIOtbUAnFITFg-10" value="Требования к средствам&lt;br&gt;реализации процедур и операций" style="rounded=0;whiteSpace=wrap;html=1;" vertex="1" parent="1">
          <mxGeometry x="280" y="220" width="200" height="40" as="geometry" />
        </mxCell>
        <mxCell id="suJwKmTHIOtbUAnFITFg-11" value="Схема достижения всех целей" style="rounded=0;whiteSpace=wrap;html=1;" vertex="1" parent="1">
          <mxGeometry x="280" y="100" width="200" height="40" as="geometry" />
        </mxCell>
        <mxCell id="suJwKmTHIOtbUAnFITFg-18" style="edgeStyle=orthogonalEdgeStyle;rounded=0;orthogonalLoop=1;jettySize=auto;html=1;entryX=1;entryY=0.5;entryDx=0;entryDy=0;" edge="1" parent="1" source="suJwKmTHIOtbUAnFITFg-12" target="suJwKmTHIOtbUAnFITFg-8">
          <mxGeometry relative="1" as="geometry" />
        </mxCell>
        <mxCell id="suJwKmTHIOtbUAnFITFg-12" value="Процедуры и операции&lt;br&gt;для достижения целей" style="rounded=0;whiteSpace=wrap;html=1;" vertex="1" parent="1">
          <mxGeometry x="280" y="160" width="200" height="40" as="geometry" />
        </mxCell>
        <mxCell id="suJwKmTHIOtbUAnFITFg-14" value="Предполагаемые трудности&lt;br&gt;при осуществлении этапов" style="rounded=0;whiteSpace=wrap;html=1;" vertex="1" parent="1">
          <mxGeometry x="280" y="280" width="200" height="40" as="geometry" />
        </mxCell>
        <mxCell id="suJwKmTHIOtbUAnFITFg-16" value="" style="endArrow=none;html=1;rounded=0;entryX=0;entryY=0.5;entryDx=0;entryDy=0;exitX=0;exitY=0.5;exitDx=0;exitDy=0;" edge="1" parent="1" source="suJwKmTHIOtbUAnFITFg-14" target="suJwKmTHIOtbUAnFITFg-9">
          <mxGeometry width="50" height="50" relative="1" as="geometry">
            <mxPoint x="190" y="160" as="sourcePoint" />
            <mxPoint x="240" y="110" as="targetPoint" />
            <Array as="points">
              <mxPoint x="230" y="300" />
              <mxPoint x="230" y="60" />
            </Array>
          </mxGeometry>
        </mxCell>
        <mxCell id="suJwKmTHIOtbUAnFITFg-17" value="" style="endArrow=none;html=1;rounded=0;entryX=0;entryY=0.5;entryDx=0;entryDy=0;exitX=0;exitY=0.5;exitDx=0;exitDy=0;" edge="1" parent="1" source="suJwKmTHIOtbUAnFITFg-10" target="suJwKmTHIOtbUAnFITFg-11">
          <mxGeometry width="50" height="50" relative="1" as="geometry">
            <mxPoint x="240" y="230" as="sourcePoint" />
            <mxPoint x="200" y="240" as="targetPoint" />
            <Array as="points">
              <mxPoint x="230" y="240" />
              <mxPoint x="230" y="120" />
            </Array>
          </mxGeometry>
        </mxCell>
      </root>
    </mxGraphModel>
  </diagram>
  <diagram id="BpZBNAuYiK_2DN0GVshm" name="Страница — 5">
    <mxGraphModel dx="855" dy="501" grid="1" gridSize="10" guides="1" tooltips="1" connect="1" arrows="1" fold="1" page="1" pageScale="1" pageWidth="827" pageHeight="1169" math="0" shadow="0">
      <root>
        <mxCell id="0" />
        <mxCell id="1" parent="0" />
        <mxCell id="HRWQ3QxX7KjiHg3Tg36V-1" value="План исследования" style="ellipse;whiteSpace=wrap;html=1;" vertex="1" parent="1">
          <mxGeometry x="160" y="260" width="130" height="40" as="geometry" />
        </mxCell>
        <mxCell id="HRWQ3QxX7KjiHg3Tg36V-2" value="Поисковый" style="ellipse;whiteSpace=wrap;html=1;" vertex="1" parent="1">
          <mxGeometry x="390" y="110" width="130" height="40" as="geometry" />
        </mxCell>
        <mxCell id="HRWQ3QxX7KjiHg3Tg36V-3" value="Описательный" style="ellipse;whiteSpace=wrap;html=1;" vertex="1" parent="1">
          <mxGeometry x="390" y="260" width="130" height="40" as="geometry" />
        </mxCell>
        <mxCell id="HRWQ3QxX7KjiHg3Tg36V-4" value="Экспериментальный" style="ellipse;whiteSpace=wrap;html=1;" vertex="1" parent="1">
          <mxGeometry x="390" y="360" width="130" height="40" as="geometry" />
        </mxCell>
        <mxCell id="HRWQ3QxX7KjiHg3Tg36V-5" value="Выборочное обследование" style="ellipse;whiteSpace=wrap;html=1;" vertex="1" parent="1">
          <mxGeometry x="590" y="210" width="130" height="40" as="geometry" />
        </mxCell>
        <mxCell id="HRWQ3QxX7KjiHg3Tg36V-6" value="Опрос" style="ellipse;whiteSpace=wrap;html=1;" vertex="1" parent="1">
          <mxGeometry x="590" y="260" width="130" height="40" as="geometry" />
        </mxCell>
        <mxCell id="HRWQ3QxX7KjiHg3Tg36V-7" value="Статистический анализ данных" style="ellipse;whiteSpace=wrap;html=1;" vertex="1" parent="1">
          <mxGeometry x="590" y="310" width="130" height="40" as="geometry" />
        </mxCell>
        <mxCell id="HRWQ3QxX7KjiHg3Tg36V-9" value="" style="endArrow=classic;html=1;rounded=0;entryX=0;entryY=1;entryDx=0;entryDy=0;exitX=1;exitY=0;exitDx=0;exitDy=0;" edge="1" parent="1" source="HRWQ3QxX7KjiHg3Tg36V-1" target="HRWQ3QxX7KjiHg3Tg36V-2">
          <mxGeometry width="50" height="50" relative="1" as="geometry">
            <mxPoint x="300" y="360" as="sourcePoint" />
            <mxPoint x="370" y="190" as="targetPoint" />
          </mxGeometry>
        </mxCell>
        <mxCell id="HRWQ3QxX7KjiHg3Tg36V-10" value="" style="endArrow=classic;html=1;rounded=0;entryX=0;entryY=0.5;entryDx=0;entryDy=0;exitX=1;exitY=0.5;exitDx=0;exitDy=0;" edge="1" parent="1" source="HRWQ3QxX7KjiHg3Tg36V-1" target="HRWQ3QxX7KjiHg3Tg36V-3">
          <mxGeometry width="50" height="50" relative="1" as="geometry">
            <mxPoint x="300" y="290" as="sourcePoint" />
            <mxPoint x="400" y="170" as="targetPoint" />
          </mxGeometry>
        </mxCell>
        <mxCell id="HRWQ3QxX7KjiHg3Tg36V-11" value="" style="endArrow=classic;html=1;rounded=0;exitX=1;exitY=1;exitDx=0;exitDy=0;entryX=0;entryY=0;entryDx=0;entryDy=0;" edge="1" parent="1" source="HRWQ3QxX7KjiHg3Tg36V-1" target="HRWQ3QxX7KjiHg3Tg36V-4">
          <mxGeometry width="50" height="50" relative="1" as="geometry">
            <mxPoint x="310" y="300" as="sourcePoint" />
            <mxPoint x="390" y="430" as="targetPoint" />
          </mxGeometry>
        </mxCell>
        <mxCell id="HRWQ3QxX7KjiHg3Tg36V-12" value="" style="endArrow=classic;html=1;rounded=0;entryX=0;entryY=0.5;entryDx=0;entryDy=0;exitX=1;exitY=0;exitDx=0;exitDy=0;" edge="1" parent="1" source="HRWQ3QxX7KjiHg3Tg36V-3" target="HRWQ3QxX7KjiHg3Tg36V-5">
          <mxGeometry width="50" height="50" relative="1" as="geometry">
            <mxPoint x="300" y="290" as="sourcePoint" />
            <mxPoint x="400" y="290" as="targetPoint" />
          </mxGeometry>
        </mxCell>
        <mxCell id="HRWQ3QxX7KjiHg3Tg36V-13" value="" style="endArrow=classic;html=1;rounded=0;entryX=0;entryY=0.5;entryDx=0;entryDy=0;exitX=1;exitY=0.5;exitDx=0;exitDy=0;" edge="1" parent="1" source="HRWQ3QxX7KjiHg3Tg36V-3" target="HRWQ3QxX7KjiHg3Tg36V-6">
          <mxGeometry width="50" height="50" relative="1" as="geometry">
            <mxPoint x="530" y="290" as="sourcePoint" />
            <mxPoint x="600" y="240" as="targetPoint" />
          </mxGeometry>
        </mxCell>
        <mxCell id="HRWQ3QxX7KjiHg3Tg36V-14" value="" style="endArrow=classic;html=1;rounded=0;entryX=0;entryY=0.5;entryDx=0;entryDy=0;exitX=1;exitY=1;exitDx=0;exitDy=0;" edge="1" parent="1" source="HRWQ3QxX7KjiHg3Tg36V-3" target="HRWQ3QxX7KjiHg3Tg36V-7">
          <mxGeometry width="50" height="50" relative="1" as="geometry">
            <mxPoint x="530" y="290" as="sourcePoint" />
            <mxPoint x="600" y="290" as="targetPoint" />
          </mxGeometry>
        </mxCell>
        <mxCell id="DmnQmHcvVdGU5UwSECUL-1" value="Изучение&lt;br&gt;литературы" style="ellipse;whiteSpace=wrap;html=1;" vertex="1" parent="1">
          <mxGeometry x="590" y="60" width="130" height="40" as="geometry" />
        </mxCell>
        <mxCell id="DmnQmHcvVdGU5UwSECUL-2" value="Опрос экспертов" style="ellipse;whiteSpace=wrap;html=1;" vertex="1" parent="1">
          <mxGeometry x="590" y="110" width="130" height="40" as="geometry" />
        </mxCell>
        <mxCell id="DmnQmHcvVdGU5UwSECUL-3" value="Наблюдение" style="ellipse;whiteSpace=wrap;html=1;" vertex="1" parent="1">
          <mxGeometry x="590" y="160" width="130" height="40" as="geometry" />
        </mxCell>
        <mxCell id="DmnQmHcvVdGU5UwSECUL-4" value="" style="endArrow=classic;html=1;rounded=0;entryX=0;entryY=0.5;entryDx=0;entryDy=0;exitX=1;exitY=0;exitDx=0;exitDy=0;" edge="1" parent="1" source="HRWQ3QxX7KjiHg3Tg36V-2" target="DmnQmHcvVdGU5UwSECUL-1">
          <mxGeometry width="50" height="50" relative="1" as="geometry">
            <mxPoint x="511" y="276" as="sourcePoint" />
            <mxPoint x="600" y="240" as="targetPoint" />
          </mxGeometry>
        </mxCell>
        <mxCell id="DmnQmHcvVdGU5UwSECUL-5" value="" style="endArrow=classic;html=1;rounded=0;entryX=0;entryY=0.5;entryDx=0;entryDy=0;exitX=1;exitY=0.5;exitDx=0;exitDy=0;" edge="1" parent="1" source="HRWQ3QxX7KjiHg3Tg36V-2" target="DmnQmHcvVdGU5UwSECUL-2">
          <mxGeometry width="50" height="50" relative="1" as="geometry">
            <mxPoint x="511" y="156" as="sourcePoint" />
            <mxPoint x="600" y="90" as="targetPoint" />
          </mxGeometry>
        </mxCell>
        <mxCell id="DmnQmHcvVdGU5UwSECUL-6" value="" style="endArrow=classic;html=1;rounded=0;entryX=0;entryY=0.5;entryDx=0;entryDy=0;exitX=1;exitY=1;exitDx=0;exitDy=0;" edge="1" parent="1" source="HRWQ3QxX7KjiHg3Tg36V-2" target="DmnQmHcvVdGU5UwSECUL-3">
          <mxGeometry width="50" height="50" relative="1" as="geometry">
            <mxPoint x="530" y="170" as="sourcePoint" />
            <mxPoint x="600" y="140" as="targetPoint" />
          </mxGeometry>
        </mxCell>
      </root>
    </mxGraphModel>
  </diagram>
  <diagram id="hj2ScZPKzWoYjEvNghDL" name="Страница — 6">
    <mxGraphModel dx="1026" dy="601" grid="1" gridSize="10" guides="1" tooltips="1" connect="1" arrows="1" fold="1" page="1" pageScale="1" pageWidth="827" pageHeight="1169" math="0" shadow="0">
      <root>
        <mxCell id="0" />
        <mxCell id="1" parent="0" />
        <mxCell id="v_kMhQpEt9_yQIeIa9yk-3" value="T1" style="ellipse;whiteSpace=wrap;html=1;" vertex="1" parent="1">
          <mxGeometry x="240" y="240" width="40" height="40" as="geometry" />
        </mxCell>
        <mxCell id="v_kMhQpEt9_yQIeIa9yk-4" value="T2" style="ellipse;whiteSpace=wrap;html=1;" vertex="1" parent="1">
          <mxGeometry x="320" y="200" width="40" height="40" as="geometry" />
        </mxCell>
        <mxCell id="v_kMhQpEt9_yQIeIa9yk-5" value="T3" style="ellipse;whiteSpace=wrap;html=1;" vertex="1" parent="1">
          <mxGeometry x="320" y="280" width="40" height="40" as="geometry" />
        </mxCell>
        <mxCell id="v_kMhQpEt9_yQIeIa9yk-6" value="T4" style="ellipse;whiteSpace=wrap;html=1;" vertex="1" parent="1">
          <mxGeometry x="400" y="240" width="40" height="40" as="geometry" />
        </mxCell>
        <mxCell id="v_kMhQpEt9_yQIeIa9yk-7" value="T5" style="ellipse;whiteSpace=wrap;html=1;" vertex="1" parent="1">
          <mxGeometry x="480" y="240" width="40" height="40" as="geometry" />
        </mxCell>
        <mxCell id="v_kMhQpEt9_yQIeIa9yk-9" value="" style="endArrow=classic;html=1;rounded=0;entryX=0;entryY=0.5;entryDx=0;entryDy=0;exitX=1;exitY=0;exitDx=0;exitDy=0;" edge="1" parent="1" source="v_kMhQpEt9_yQIeIa9yk-3" target="v_kMhQpEt9_yQIeIa9yk-4">
          <mxGeometry width="50" height="50" relative="1" as="geometry">
            <mxPoint x="150" y="400" as="sourcePoint" />
            <mxPoint x="200" y="350" as="targetPoint" />
          </mxGeometry>
        </mxCell>
        <mxCell id="v_kMhQpEt9_yQIeIa9yk-11" value="" style="endArrow=classic;html=1;rounded=0;entryX=0;entryY=0.5;entryDx=0;entryDy=0;exitX=1;exitY=1;exitDx=0;exitDy=0;" edge="1" parent="1" source="v_kMhQpEt9_yQIeIa9yk-3" target="v_kMhQpEt9_yQIeIa9yk-5">
          <mxGeometry width="50" height="50" relative="1" as="geometry">
            <mxPoint x="284" y="256" as="sourcePoint" />
            <mxPoint x="330" y="230" as="targetPoint" />
          </mxGeometry>
        </mxCell>
        <mxCell id="v_kMhQpEt9_yQIeIa9yk-12" value="" style="endArrow=classic;html=1;rounded=0;entryX=0;entryY=1;entryDx=0;entryDy=0;exitX=1;exitY=0.5;exitDx=0;exitDy=0;" edge="1" parent="1" source="v_kMhQpEt9_yQIeIa9yk-5" target="v_kMhQpEt9_yQIeIa9yk-6">
          <mxGeometry width="50" height="50" relative="1" as="geometry">
            <mxPoint x="284" y="284" as="sourcePoint" />
            <mxPoint x="330" y="310" as="targetPoint" />
          </mxGeometry>
        </mxCell>
        <mxCell id="v_kMhQpEt9_yQIeIa9yk-13" value="" style="endArrow=classic;html=1;rounded=0;entryX=0;entryY=0;entryDx=0;entryDy=0;exitX=1;exitY=0.5;exitDx=0;exitDy=0;" edge="1" parent="1" source="v_kMhQpEt9_yQIeIa9yk-4" target="v_kMhQpEt9_yQIeIa9yk-6">
          <mxGeometry width="50" height="50" relative="1" as="geometry">
            <mxPoint x="370" y="310" as="sourcePoint" />
            <mxPoint x="416" y="284" as="targetPoint" />
          </mxGeometry>
        </mxCell>
        <mxCell id="v_kMhQpEt9_yQIeIa9yk-14" value="" style="endArrow=classic;html=1;rounded=0;entryX=0;entryY=0.5;entryDx=0;entryDy=0;exitX=1;exitY=0.5;exitDx=0;exitDy=0;" edge="1" parent="1" source="v_kMhQpEt9_yQIeIa9yk-6" target="v_kMhQpEt9_yQIeIa9yk-7">
          <mxGeometry width="50" height="50" relative="1" as="geometry">
            <mxPoint x="370" y="230" as="sourcePoint" />
            <mxPoint x="416" y="256" as="targetPoint" />
          </mxGeometry>
        </mxCell>
      </root>
    </mxGraphModel>
  </diagram>
</mxfile>
